# xmcd CD database file
#
# Track frame offsets:
#	150
#	12899
#	21906
#	30613
#	50506
#	72398
#	96725
#	114714
#	131329
#	145983
#	159719
#
# Disc length: 2410 seconds
#
# Revision: 0
# Processed by: cddbd v1.5.2PL0 Copyright (c) Steve Scherf et al.
# Submitted via: CDex 1.51
#
DISCID=9d09680b
DTITLE=Jon Strahl Band - The Ladder
DYEAR=2014
DGENRE=Blues
TTITLE0=I Would
TTITLE1=Runnin' Away
TTITLE2=Comin' Home
TTITLE3=Too Long
TTITLE4=Sunshine
TTITLE5=Hold On
TTITLE6=Rollingstone
TTITLE7=Coldblooded
TTITLE8=Dead and Gone
TTITLE9=Poor Boy
TTITLE10=Sky Full of Snow
EXTD=YEAR: 2014
EXTT0=
EXTT1=
EXTT2=
EXTT3=
EXTT4=
EXTT5=
EXTT6=
EXTT7=
EXTT8=
EXTT9=
EXTT10=
PLAYORDER=
